<?xml version="1.0" encoding="UTF-8"?>
<svg viewBox="0 0 64 64" fill="none" xmlns="http://www.w3.org/2000/svg">
<defs><linearGradient id="sh4" x1="32" y1="4" x2="32" y2="60" gradientUnits="userSpaceOnUse"><stop stop-color="#fca5a5"/><stop offset="1" stop-color="#b91c1c"/></linearGradient></defs>
<path d="M32 4 L46 24 L50 48 L44 56 L36 46 L28 46 L20 56 L14 48 L18 24 Z" fill="url(#sh4)" stroke="#ef4444" stroke-width="1.5"/>
<path d="M18 24 L8 20 L14 30 Z" fill="#fca5a5" stroke="#ef4444" stroke-width="1"/>
<path d="M46 24 L56 20 L50 30 Z" fill="#fca5a5" stroke="#ef4444" stroke-width="1"/>
<ellipse cx="32" cy="24" rx="7" ry="5" fill="#450a0a" stroke="#f87171" stroke-width="1"/>
<circle cx="29" cy="23" r="1.5" fill="#f87171"/><circle cx="35" cy="23" r="1.5" fill="#f87171"/>
<path d="M20 56 L16 64 Z" stroke="#fbbf24" stroke-width="4" stroke-linecap="round"/>
<path d="M44 56 L48 64 Z" stroke="#fbbf24" stroke-width="4" stroke-linecap="round"/>
<path d="M30 46 L34 46 L33 60 L31 60 Z" fill="#fbbf24"/>
    </svg>