<?xml version="1.0" encoding="UTF-8"?>
<svg viewBox="0 0 64 64" fill="none" xmlns="http://www.w3.org/2000/svg">
<defs><linearGradient id="sh2" x1="32" y1="4" x2="32" y2="60" gradientUnits="userSpaceOnUse"><stop stop-color="#c4b5fd"/><stop offset="1" stop-color="#6d28d9"/></linearGradient></defs>
<path d="M32 2 L42 22 L50 44 L44 54 L38 46 L26 46 L20 54 L14 44 L22 22 Z" fill="url(#sh2)" stroke="#a78bfa" stroke-width="1.5"/>
<polygon points="32,10 34,16 40,16 35,20 37,26 32,22 27,26 29,20 24,16 30,16" fill="#fbbf24"/>
<rect x="28" y="26" width="8" height="8" rx="4" fill="#1e1b4b" stroke="#a78bfa" stroke-width="1"/>
<path d="M20 54 L16 62 L14 44 Z" fill="#e879f9" opacity="0.8"/>
<path d="M44 54 L48 62 L50 44 Z" fill="#e879f9" opacity="0.8"/>
<path d="M30 46 L34 46 L33 58 L31 58 Z" fill="#f0abfc" opacity="0.9"/>
    </svg>