<?xml version="1.0" encoding="UTF-8"?>
<svg viewBox="0 0 64 64" fill="none" xmlns="http://www.w3.org/2000/svg">
<defs>
  <radialGradient id="pd1" cx="50%" cy="30%"><stop stop-color="#ecfeff"/><stop offset=".5" stop-color="#a5f3fc"/><stop offset="1" stop-color="#0e7490"/></radialGradient>
  <filter id="pdg"><feGaussianBlur stdDeviation="1.5" result="g"/><feMerge><feMergeNode in="g"/><feMergeNode in="SourceGraphic"/></feMerge></filter>
  <radialGradient id="pdj"><stop stop-color="#fff"/><stop offset="1" stop-color="#22d3ee"/></radialGradient>
</defs>
<ellipse cx="32" cy="38" rx="18" ry="19" fill="url(#pd1)" stroke="#0891b2" stroke-width="1"/>
<path d="M16 22 L10 4 L22 20 Z" fill="#67e8f9" stroke="#0891b2" stroke-width="1.2"/>
<path d="M42 20 L54 4 L48 22 Z" fill="#67e8f9" stroke="#0891b2" stroke-width="1.2"/>
<path d="M26 18 L32 8 L38 18 Z" fill="#a5f3fc" stroke="#0891b2" stroke-width="1"/>
<path d="M30 14 L32 8 L34 14" fill="#fff" opacity="0.6"/>
<ellipse cx="24" cy="34" rx="7.5" ry="8" fill="#083344"/>
<ellipse cx="40" cy="34" rx="7.5" ry="8" fill="#083344"/>
<circle cx="26" cy="32" r="4" fill="url(#pdj)" filter="url(#pdg)">
  <animate attributeName="r" values="3.5;4.5;3.5" dur="2s" repeatCount="indefinite"/>
</circle>
<circle cx="42" cy="32" r="4" fill="url(#pdj)" filter="url(#pdg)">
  <animate attributeName="r" values="3.5;4.5;3.5" dur="2s" repeatCount="indefinite" begin="1s"/>
</circle>
<circle cx="25" cy="31" r="1.5" fill="#fff"/>
<circle cx="41" cy="31" r="1.5" fill="#fff"/>
<path d="M22 32 L20 30" stroke="#fff" stroke-width="1.2" stroke-linecap="round" opacity="0.8"/>
<path d="M38 32 L36 30" stroke="#fff" stroke-width="1.2" stroke-linecap="round" opacity="0.8"/>
<path d="M28 48 Q32 53 36 48" stroke="#0891b2" stroke-width="2" fill="none" stroke-linecap="round"/>
<ellipse cx="18" cy="40" rx="4" ry="2.5" fill="#fecdd3" opacity="0.4"/>
<ellipse cx="46" cy="40" rx="4" ry="2.5" fill="#fecdd3" opacity="0.4"/>
<path d="M12 46 Q6 52 9 58 Q11 56 13 58" stroke="#0891b2" stroke-width="2.5" fill="none" stroke-linecap="round"/>
<path d="M52 46 Q58 52 55 58 Q53 56 51 58" stroke="#0891b2" stroke-width="2.5" fill="none" stroke-linecap="round"/>
<polygon points="9,58 5,56 7,60" fill="#67e8f9"/>
<polygon points="55,58 59,56 57,60" fill="#67e8f9"/>
<ellipse cx="32" cy="38" rx="5" ry="3.5" fill="#a5f3fc" opacity="0.25"/>
<circle cx="10" cy="8" r="1.5" fill="#67e8f9"><animate attributeName="opacity" values="0;1;0" dur="2.5s" repeatCount="indefinite"/></circle>
<circle cx="56" cy="10" r="1" fill="#a5f3fc"><animate attributeName="opacity" values="0;1;0" dur="2s" repeatCount="indefinite" begin="0.8s"/></circle>
<circle cx="32" cy="2" r="1.2" fill="#22d3ee"><animate attributeName="opacity" values="0;1;0" dur="1.8s" repeatCount="indefinite" begin="1.5s"/></circle>
    </svg>