<?xml version="1.0" encoding="UTF-8"?>
<svg viewBox="0 0 64 64" fill="none" xmlns="http://www.w3.org/2000/svg">
<defs>
  <radialGradient id="pf1" cx="50%" cy="35%"><stop stop-color="#fff7ed"/><stop offset=".6" stop-color="#fdba74"/><stop offset="1" stop-color="#ea580c"/></radialGradient>
  <filter id="pfg"><feGaussianBlur stdDeviation="1" result="g"/><feMerge><feMergeNode in="g"/><feMergeNode in="SourceGraphic"/></feMerge></filter>
</defs>
<ellipse cx="32" cy="40" rx="20" ry="17" fill="url(#pf1)" stroke="#f97316" stroke-width="1"/>
<path d="M14 28 L18 8 L24 26 Z" fill="#fdba74" stroke="#f97316" stroke-width="1.2"/>
<path d="M40 26 L46 8 L50 28 Z" fill="#fdba74" stroke="#f97316" stroke-width="1.2"/>
<path d="M16 14 L18 8 L20 14" fill="#fef3c7" opacity="0.8"/>
<path d="M44 14 L46 8 L48 14" fill="#fef3c7" opacity="0.8"/>
<ellipse cx="24" cy="38" rx="7" ry="7.5" fill="#1c1917"/>
<ellipse cx="40" cy="38" rx="7" ry="7.5" fill="#1c1917"/>
<circle cx="26" cy="36" r="3.5" fill="#fff"/>
<circle cx="42" cy="36" r="3.5" fill="#fff"/>
<circle cx="25" cy="35" r="1.5" fill="#1c1917"/>
<circle cx="41" cy="35" r="1.5" fill="#1c1917"/>
<path d="M22 36 L20 34 L22 35" fill="#fff" opacity="0.9"/>
<path d="M38 36 L36 34 L38 35" fill="#fff" opacity="0.9"/>
<ellipse cx="32" cy="46" rx="3.5" ry="2.5" fill="#1c1917"/>
<path d="M28 48 Q32 53 36 48" stroke="#ea580c" stroke-width="1.5" fill="none" stroke-linecap="round"/>
<ellipse cx="18" cy="42" rx="5" ry="3.5" fill="#fecaca" opacity="0.5"/>
<ellipse cx="46" cy="42" rx="5" ry="3.5" fill="#fecaca" opacity="0.5"/>
<path d="M10 48 Q4 54 8 60 Q10 58 12 60" stroke="#f97316" stroke-width="3" fill="#fdba74" stroke-linecap="round"/>
<circle cx="6" cy="54" r="1" fill="#fde68a" opacity="0.8"><animate attributeName="opacity" values="0.8;0;0.8" dur="2s" repeatCount="indefinite"/></circle>
<circle cx="50" cy="16" r="1.2" fill="#fbbf24"><animate attributeName="opacity" values="0;1;0" dur="1.5s" repeatCount="indefinite"/></circle>
<circle cx="14" cy="12" r="1" fill="#fbbf24"><animate attributeName="opacity" values="0;1;0" dur="2s" repeatCount="indefinite" begin="0.7s"/></circle>
    </svg>