<?xml version="1.0" encoding="UTF-8"?>
<svg viewBox="0 0 96 96" fill="none" xmlns="http://www.w3.org/2000/svg">
<defs>
  <linearGradient id="m3" x1="48" y1="4" x2="48" y2="92" gradientUnits="userSpaceOnUse"><stop stop-color="#fecaca"/><stop offset=".5" stop-color="#ef4444"/><stop offset="1" stop-color="#7f1d1d"/></linearGradient>
  <filter id="glow3"><feGaussianBlur stdDeviation="2" result="g"/><feMerge><feMergeNode in="g"/><feMergeNode in="SourceGraphic"/></feMerge></filter>
</defs>
<ellipse cx="48" cy="50" rx="30" ry="36" fill="url(#m3)" stroke="#f87171" stroke-width="2" filter="url(#glow3)"/>
<path d="M20 28 L10 16 L18 30 Z" fill="#fbbf24"/><path d="M76 28 L86 16 L78 30 Z" fill="#fbbf24"/>
<circle cx="38" cy="38" r="9" fill="#450a0a"/><circle cx="58" cy="38" r="9" fill="#450a0a"/>
<circle cx="39" cy="36" r="4" fill="#fca5a5"/><circle cx="59" cy="36" r="4" fill="#fca5a5"/>
<circle cx="40" cy="37" r="1.5" fill="#fff"/><circle cx="60" cy="37" r="1.5" fill="#fff"/>
<path d="M34 60 Q48 74 62 60" stroke="#450a0a" stroke-width="3" fill="none"/>
<path d="M38 62 L40 68 M44 64 L44 70 M50 64 L50 70 M56 62 L58 68" stroke="#fca5a5" stroke-width="2" stroke-linecap="round"/>
<path d="M18 50 Q8 48 12 40" stroke="#ef4444" stroke-width="3" fill="none" stroke-linecap="round"/>
<path d="M78 50 Q88 48 84 40" stroke="#ef4444" stroke-width="3" fill="none" stroke-linecap="round"/>
<text x="48" y="90" text-anchor="middle" font-size="10" fill="#fbbf24" font-weight="900">BOSS</text>
    </svg>